<svg xmlns="http://www.w3.org/2000/svg"
     xmlns:xlink="http://www.w3.org/1999/xlink"
     style="width:0;height:0;visibility:hidden;">
  <defs>
    <linearGradient id="qg-bg-grad" x1="0" y1="0" x2="1" y2="1">
      <stop offset="0%" stop-color="#1F7BB6"/>
      <stop offset="100%" stop-color="#002E61"/>
    </linearGradient>
    <linearGradient id="qg-spark-grad" x1="0" y1="0" x2="1" y2="1">
      <stop offset="0%" stop-color="#20C9A4"/>
      <stop offset="100%" stop-color="#14A786"/>
    </linearGradient>
  </defs>
  <symbol id="rd-icon-spotter" viewBox="0 0 192 192">
    <circle cx="96" cy="96" r="88" fill="url(#qg-bg-grad)"/>
    <path d="M96 46a42 42 0 1 0 26.5 74.6l10.1 10.1a6 6 0 1 0 8.5-8.5l-10.1-10.1A42 42 0 0 0 96 46Zm0 14a28 28 0 1 1 0 56 28 28 0 0 1 0-56Z" fill="#ffffff"/>
    <path d="M150 38l4 12 12 4-12 4-4 12-4-12-12-4 12-4 4-12Z" fill="url(#qg-spark-grad)"/>
    <circle cx="166" cy="32" r="5" fill="#20C9A4"/>
    <circle cx="142" cy="58" r="3" fill="#20C9A4" opacity="0.7"/>
  </symbol>
</svg>
