<svg xmlns="http://www.w3.org/2000/svg" viewBox="0 0 64 64" fill="none">
  <defs>
    <linearGradient id="qg-bg" x1="0" y1="0" x2="1" y2="1">
      <stop offset="0%" stop-color="#1F7BB6"/>
      <stop offset="100%" stop-color="#002E61"/>
    </linearGradient>
    <linearGradient id="qg-sparkle" x1="0" y1="0" x2="1" y2="1">
      <stop offset="0%" stop-color="#20C9A4"/>
      <stop offset="100%" stop-color="#14A786"/>
    </linearGradient>
  </defs>
  <circle cx="32" cy="32" r="30" fill="url(#qg-bg)"/>
  <path d="M32 14a14 14 0 1 0 9.1 24.7l3.4 3.4a2 2 0 1 0 2.8-2.8l-3.4-3.4A14 14 0 0 0 32 14Zm0 5a9 9 0 1 1 0 18 9 9 0 0 1 0-18Z" fill="#ffffff"/>
  <path d="M46 16l1.2 3.6L51 21l-3.8 1.4L46 26l-1.2-3.6L41 21l3.8-1.4L46 16Z" fill="url(#qg-sparkle)"/>
  <circle cx="51" cy="14" r="1.8" fill="#20C9A4"/>
</svg>
